<mxfile host="app.diagrams.net" modified="2021-11-13T10:32:24.682Z" agent="5.0 (X11; Linux x86_64) AppleWebKit/537.36 (KHTML, like Gecko) Chrome/92.0.4515.40 Safari/537.36 Edg/92.0.902.9" etag="bALG91DJL0U6zZKltyZX" version="15.7.3" type="github">
  <diagram id="rednEDzEIAjiwpXMcuVi" name="Page-1">
    <mxGraphModel dx="1422" dy="725" grid="1" gridSize="10" guides="1" tooltips="1" connect="1" arrows="1" fold="1" page="1" pageScale="1" pageWidth="827" pageHeight="1169" math="0" shadow="0">
      <root>
        <mxCell id="0" />
        <mxCell id="1" parent="0" />
        <mxCell id="dd4Ug4L6rTe_2vMBqGp8-2" value="" style="rounded=0;whiteSpace=wrap;html=1;fillColor=#fff2cc;strokeColor=none;gradientColor=#ffd966;" vertex="1" parent="1">
          <mxGeometry x="165" y="160" width="275" height="100" as="geometry" />
        </mxCell>
        <mxCell id="dd4Ug4L6rTe_2vMBqGp8-3" value="" style="rounded=0;whiteSpace=wrap;html=1;fillColor=#dae8fc;strokeColor=none;" vertex="1" parent="1">
          <mxGeometry x="480" y="160" width="250" height="100" as="geometry" />
        </mxCell>
        <mxCell id="dd4Ug4L6rTe_2vMBqGp8-4" value="" style="rounded=0;whiteSpace=wrap;html=1;fillColor=#fff2cc;strokeColor=#d6b656;" vertex="1" parent="1">
          <mxGeometry x="165" y="280" width="565" height="80" as="geometry" />
        </mxCell>
        <mxCell id="dd4Ug4L6rTe_2vMBqGp8-5" value="" style="rounded=0;whiteSpace=wrap;html=1;" vertex="1" parent="1">
          <mxGeometry x="165" y="380" width="125" height="110" as="geometry" />
        </mxCell>
        <mxCell id="dd4Ug4L6rTe_2vMBqGp8-6" value="" style="rounded=0;whiteSpace=wrap;html=1;" vertex="1" parent="1">
          <mxGeometry x="360" y="380" width="210" height="110" as="geometry" />
        </mxCell>
        <mxCell id="dd4Ug4L6rTe_2vMBqGp8-7" value="" style="rounded=0;whiteSpace=wrap;html=1;" vertex="1" parent="1">
          <mxGeometry x="580" y="380" width="160" height="120" as="geometry" />
        </mxCell>
        <mxCell id="dd4Ug4L6rTe_2vMBqGp8-8" value="" style="rounded=0;whiteSpace=wrap;html=1;" vertex="1" parent="1">
          <mxGeometry x="187.5" y="530" width="520" height="70" as="geometry" />
        </mxCell>
        <mxCell id="dd4Ug4L6rTe_2vMBqGp8-9" value="&lt;span&gt;渠道客户端&lt;/span&gt;" style="text;html=1;align=center;verticalAlign=middle;resizable=0;points=[];autosize=1;strokeColor=none;fillColor=none;" vertex="1" parent="1">
          <mxGeometry x="180" y="170" width="80" height="20" as="geometry" />
        </mxCell>
        <mxCell id="dd4Ug4L6rTe_2vMBqGp8-11" value="web服务" style="text;html=1;align=center;verticalAlign=middle;resizable=0;points=[];autosize=1;strokeColor=none;fillColor=none;" vertex="1" parent="1">
          <mxGeometry x="560" y="160" width="60" height="20" as="geometry" />
        </mxCell>
        <mxCell id="dd4Ug4L6rTe_2vMBqGp8-12" value="客户管理" style="rounded=0;whiteSpace=wrap;html=1;" vertex="1" parent="1">
          <mxGeometry x="190" y="300" width="110" height="20" as="geometry" />
        </mxCell>
        <mxCell id="dd4Ug4L6rTe_2vMBqGp8-13" value="&lt;span&gt;应用服务&lt;/span&gt;" style="text;html=1;align=center;verticalAlign=middle;resizable=0;points=[];autosize=1;strokeColor=none;fillColor=none;" vertex="1" parent="1">
          <mxGeometry x="414" y="280" width="60" height="20" as="geometry" />
        </mxCell>
        <mxCell id="dd4Ug4L6rTe_2vMBqGp8-14" value="车型库管理" style="rounded=0;whiteSpace=wrap;html=1;" vertex="1" parent="1">
          <mxGeometry x="304" y="300" width="110" height="20" as="geometry" />
        </mxCell>
        <mxCell id="dd4Ug4L6rTe_2vMBqGp8-15" value="渠道管理" style="rounded=0;whiteSpace=wrap;html=1;" vertex="1" parent="1">
          <mxGeometry x="430" y="300" width="110" height="20" as="geometry" />
        </mxCell>
        <mxCell id="dd4Ug4L6rTe_2vMBqGp8-16" value="问卷管理" style="rounded=0;whiteSpace=wrap;html=1;" vertex="1" parent="1">
          <mxGeometry x="550" y="300" width="110" height="20" as="geometry" />
        </mxCell>
        <mxCell id="dd4Ug4L6rTe_2vMBqGp8-17" value="合同管理" style="rounded=0;whiteSpace=wrap;html=1;" vertex="1" parent="1">
          <mxGeometry x="190" y="330" width="110" height="20" as="geometry" />
        </mxCell>
        <mxCell id="dd4Ug4L6rTe_2vMBqGp8-20" value="员工管理" style="rounded=0;whiteSpace=wrap;html=1;" vertex="1" parent="1">
          <mxGeometry x="304" y="330" width="110" height="20" as="geometry" />
        </mxCell>
        <mxCell id="dd4Ug4L6rTe_2vMBqGp8-21" value="订单管理" style="rounded=0;whiteSpace=wrap;html=1;" vertex="1" parent="1">
          <mxGeometry x="430" y="330" width="110" height="20" as="geometry" />
        </mxCell>
        <mxCell id="dd4Ug4L6rTe_2vMBqGp8-22" value="&lt;span&gt;数据处理&lt;/span&gt;" style="text;html=1;align=center;verticalAlign=middle;resizable=0;points=[];autosize=1;strokeColor=none;fillColor=none;" vertex="1" parent="1">
          <mxGeometry x="455" y="380" width="60" height="20" as="geometry" />
        </mxCell>
        <mxCell id="dd4Ug4L6rTe_2vMBqGp8-23" value="消息服务" style="rounded=0;whiteSpace=wrap;html=1;" vertex="1" parent="1">
          <mxGeometry x="405" y="405" width="65" height="20" as="geometry" />
        </mxCell>
        <mxCell id="dd4Ug4L6rTe_2vMBqGp8-24" value="缓存服务" style="rounded=0;whiteSpace=wrap;html=1;" vertex="1" parent="1">
          <mxGeometry x="485" y="405" width="65" height="20" as="geometry" />
        </mxCell>
        <mxCell id="dd4Ug4L6rTe_2vMBqGp8-25" value="流程引擎" style="rounded=0;whiteSpace=wrap;html=1;" vertex="1" parent="1">
          <mxGeometry x="405" y="430" width="65" height="20" as="geometry" />
        </mxCell>
        <mxCell id="dd4Ug4L6rTe_2vMBqGp8-27" value="日志管理" style="rounded=0;whiteSpace=wrap;html=1;" vertex="1" parent="1">
          <mxGeometry x="485" y="430" width="65" height="20" as="geometry" />
        </mxCell>
        <mxCell id="dd4Ug4L6rTe_2vMBqGp8-28" value="数据脱敏" style="rounded=0;whiteSpace=wrap;html=1;" vertex="1" parent="1">
          <mxGeometry x="405" y="460" width="65" height="20" as="geometry" />
        </mxCell>
        <mxCell id="dd4Ug4L6rTe_2vMBqGp8-29" value="事物控制" style="rounded=0;whiteSpace=wrap;html=1;" vertex="1" parent="1">
          <mxGeometry x="485" y="460" width="65" height="20" as="geometry" />
        </mxCell>
        <mxCell id="dd4Ug4L6rTe_2vMBqGp8-30" value="&lt;span&gt;监控管理&lt;/span&gt;" style="text;html=1;align=center;verticalAlign=middle;resizable=0;points=[];autosize=1;strokeColor=none;fillColor=none;" vertex="1" parent="1">
          <mxGeometry x="200" y="380" width="60" height="20" as="geometry" />
        </mxCell>
        <mxCell id="dd4Ug4L6rTe_2vMBqGp8-31" value="业务监控" style="rounded=0;whiteSpace=wrap;html=1;" vertex="1" parent="1">
          <mxGeometry x="180" y="400" width="65" height="20" as="geometry" />
        </mxCell>
        <mxCell id="dd4Ug4L6rTe_2vMBqGp8-32" value="数据监控" style="rounded=0;whiteSpace=wrap;html=1;" vertex="1" parent="1">
          <mxGeometry x="180" y="430" width="65" height="20" as="geometry" />
        </mxCell>
        <mxCell id="dd4Ug4L6rTe_2vMBqGp8-33" value="预警通知" style="rounded=0;whiteSpace=wrap;html=1;" vertex="1" parent="1">
          <mxGeometry x="180" y="460" width="65" height="20" as="geometry" />
        </mxCell>
        <mxCell id="dd4Ug4L6rTe_2vMBqGp8-34" value="报表管理" style="text;html=1;align=center;verticalAlign=middle;resizable=0;points=[];autosize=1;strokeColor=none;fillColor=none;" vertex="1" parent="1">
          <mxGeometry x="620" y="380" width="60" height="20" as="geometry" />
        </mxCell>
        <mxCell id="dd4Ug4L6rTe_2vMBqGp8-35" value="报表服务" style="rounded=0;whiteSpace=wrap;html=1;" vertex="1" parent="1">
          <mxGeometry x="620" y="405" width="65" height="20" as="geometry" />
        </mxCell>
        <mxCell id="dd4Ug4L6rTe_2vMBqGp8-37" value="上传下载服务" style="rounded=0;whiteSpace=wrap;html=1;" vertex="1" parent="1">
          <mxGeometry x="613.75" y="440" width="92.5" height="20" as="geometry" />
        </mxCell>
        <mxCell id="dd4Ug4L6rTe_2vMBqGp8-41" value="任务调度服务" style="rounded=0;whiteSpace=wrap;html=1;" vertex="1" parent="1">
          <mxGeometry x="620" y="470" width="82.5" height="20" as="geometry" />
        </mxCell>
        <mxCell id="dd4Ug4L6rTe_2vMBqGp8-42" value="&lt;span&gt;接口处理&lt;/span&gt;" style="text;html=1;align=center;verticalAlign=middle;resizable=0;points=[];autosize=1;strokeColor=none;fillColor=none;" vertex="1" parent="1">
          <mxGeometry x="417.5" y="530" width="60" height="20" as="geometry" />
        </mxCell>
        <mxCell id="dd4Ug4L6rTe_2vMBqGp8-43" value="文件传输" style="rounded=0;whiteSpace=wrap;html=1;" vertex="1" parent="1">
          <mxGeometry x="225" y="550" width="65" height="20" as="geometry" />
        </mxCell>
        <mxCell id="dd4Ug4L6rTe_2vMBqGp8-45" value="&lt;span&gt;汽车金融平台&lt;/span&gt;" style="rounded=0;whiteSpace=wrap;html=1;fillColor=#ffe6cc;strokeColor=none;" vertex="1" parent="1">
          <mxGeometry x="500" y="180" width="90" height="40" as="geometry" />
        </mxCell>
        <mxCell id="dd4Ug4L6rTe_2vMBqGp8-48" value="安全检查" style="rounded=0;whiteSpace=wrap;html=1;" vertex="1" parent="1">
          <mxGeometry x="320" y="555" width="65" height="20" as="geometry" />
        </mxCell>
        <mxCell id="dd4Ug4L6rTe_2vMBqGp8-49" value="流量控制" style="rounded=0;whiteSpace=wrap;html=1;" vertex="1" parent="1">
          <mxGeometry x="420" y="555" width="65" height="20" as="geometry" />
        </mxCell>
        <mxCell id="dd4Ug4L6rTe_2vMBqGp8-51" value="" style="ellipse;whiteSpace=wrap;html=1;fillColor=#dae8fc;gradientColor=#7ea6e0;strokeColor=#6c8ebf;" vertex="1" parent="1">
          <mxGeometry x="90" y="830" width="460" height="280" as="geometry" />
        </mxCell>
        <mxCell id="dd4Ug4L6rTe_2vMBqGp8-55" value="" style="rounded=0;whiteSpace=wrap;html=1;fontColor=#000000;" vertex="1" parent="1">
          <mxGeometry x="650" y="940" width="160" height="140" as="geometry" />
        </mxCell>
        <mxCell id="dd4Ug4L6rTe_2vMBqGp8-56" value="天津邮储中台" style="text;html=1;align=center;verticalAlign=middle;resizable=0;points=[];autosize=1;strokeColor=none;fillColor=none;fontColor=#000000;" vertex="1" parent="1">
          <mxGeometry x="685" y="945" width="90" height="20" as="geometry" />
        </mxCell>
        <mxCell id="dd4Ug4L6rTe_2vMBqGp8-57" value="" style="rounded=0;whiteSpace=wrap;html=1;fontColor=#000000;" vertex="1" parent="1">
          <mxGeometry x="70" y="670" width="160" height="140" as="geometry" />
        </mxCell>
        <mxCell id="dd4Ug4L6rTe_2vMBqGp8-58" value="汽车金融渠道进件管理系统" style="text;html=1;align=center;verticalAlign=middle;resizable=0;points=[];autosize=1;strokeColor=none;fillColor=none;fontColor=#000000;" vertex="1" parent="1">
          <mxGeometry x="70" y="680" width="160" height="20" as="geometry" />
        </mxCell>
        <mxCell id="dd4Ug4L6rTe_2vMBqGp8-62" value="客户基本信息" style="shape=cube;whiteSpace=wrap;html=1;boundedLbl=1;backgroundOutline=1;darkOpacity=0.05;darkOpacity2=0.1;fontColor=#000000;size=5;" vertex="1" parent="1">
          <mxGeometry x="130" y="930" width="85" height="50" as="geometry" />
        </mxCell>
        <mxCell id="dd4Ug4L6rTe_2vMBqGp8-63" value="客户基本信息" style="shape=cube;whiteSpace=wrap;html=1;boundedLbl=1;backgroundOutline=1;darkOpacity=0.05;darkOpacity2=0.1;fontColor=#000000;size=5;" vertex="1" parent="1">
          <mxGeometry x="180" y="870" width="85" height="50" as="geometry" />
        </mxCell>
      </root>
    </mxGraphModel>
  </diagram>
</mxfile>
